<?xml version="1.0" encoding="UTF-8"?>
<!DOCTYPE svg PUBLIC "-//W3C//DTD SVG 1.1//EN" "http://www.w3.org/Graphics/SVG/1.1/DTD/svg11.dtd">
<!-- Creator: CorelDRAW -->
<svg xmlns="http://www.w3.org/2000/svg" xml:space="preserve" width="2048px" height="2048px" style="shape-rendering:geometricPrecision; text-rendering:geometricPrecision; image-rendering:optimizeQuality; fill-rule:evenodd; clip-rule:evenodd"
viewBox="0 0 2048 2048"
 xmlns:xlink="http://www.w3.org/1999/xlink">
 <defs>
  <style type="text/css">
   <![CDATA[
    .fil2 {fill:none}
    .fil3 {fill:#263238}
    .fil4 {fill:#37474F}
    .fil1 {fill:#7CB342}
    .fil0 {fill:#AED581}
    .fil5 {fill:#E0F7FA}
    .fil9 {fill:#212121;fill-rule:nonzero}
    .fil8 {fill:#37474F;fill-rule:nonzero}
    .fil6 {fill:#6D4C41;fill-rule:nonzero}
    .fil7 {fill:#A1887F;fill-rule:nonzero}
   ]]>
  </style>
   <clipPath id="id0">
    <path d="M1024 0c565.539,0 1024,458.461 1024,1024 0,565.539 -458.461,1024 -1024,1024 -565.539,0 -1024,-458.461 -1024,-1024 0,-565.539 458.461,-1024 1024,-1024z"/>
   </clipPath>
 </defs>
 <g id="Layer_x0020_1">
  <metadata id="CorelCorpID_0Corel-Layer"/>
  <path class="fil0" d="M1024 0c565.539,0 1024,458.461 1024,1024 0,565.539 -458.461,1024 -1024,1024 -565.539,0 -1024,-458.461 -1024,-1024 0,-565.539 458.461,-1024 1024,-1024z"/>
  <g style="clip-path:url(#id0)">
   <g id="_341218384">
    <g>
     <polygon id="_3333174001" class="fil1" points="1333.98,484.884 2469.86,1620.77 2470.81,1621.93 2471.74,1623.11 2472.65,1624.32 2473.53,1625.55 2474.39,1626.81 2475.22,1628.1 2476.03,1629.4 2476.81,1630.73 2477.56,1632.08 2478.29,1633.45 2478.99,1634.84 2479.66,1636.25 2480.31,1637.69 2480.92,1639.14 2481.51,1640.61 2482.07,1642.1 2482.59,1643.6 2483.09,1645.12 2483.55,1646.66 2483.98,1648.22 2484.38,1649.79 2484.75,1651.38 2485.09,1652.98 2485.39,1654.59 2485.66,1656.22 2485.89,1657.86 2486.09,1659.51 2486.25,1661.17 2486.38,1662.85 2486.48,1664.53 2486.53,1666.23 2486.55,1667.94 1350.67,532.054 1350.65,530.348 1350.59,528.652 1350.5,526.967 1350.37,525.292 1350.21,523.628 1350.01,521.976 1349.78,520.335 1349.51,518.709 1349.21,517.094 1348.87,515.494 1348.5,513.907 1348.1,512.337 1347.67,510.781 1347.21,509.242 1346.71,507.72 1346.18,506.214 1345.63,504.726 1345.04,503.255 1344.43,501.804 1343.78,500.372 1343.11,498.959 1342.41,497.567 1341.68,496.196 1340.93,494.847 1340.15,493.518 1339.34,492.213 1338.51,490.931 1337.65,489.672 1336.77,488.438 1335.86,487.228 1334.93,486.043 "/>
     <polygon id="_333317352" class="fil1" points="1350.67,532.054 2486.55,1667.94 2486.55,2441.34 1350.67,1305.46 "/>
     <polygon id="_333317688" class="fil1" points="1350.67,1305.46 2486.55,2441.34 2486.55,2473.42 1350.67,1337.54 "/>
     <polygon id="_333317736" class="fil1" points="1350.67,1337.54 2486.55,2473.42 2486.55,2651.83 1350.67,1515.95 "/>
     <polygon id="_333318720" class="fil1" points="1350.67,1515.95 2486.55,2651.83 2486.53,2653.53 2486.48,2655.23 2486.38,2656.92 2486.25,2658.59 2486.09,2660.25 2485.89,2661.91 2485.66,2663.55 2485.39,2665.17 2485.09,2666.79 2484.75,2668.39 2484.38,2669.97 2483.98,2671.54 2483.55,2673.1 2483.09,2674.64 2482.59,2676.16 2482.07,2677.67 2481.51,2679.16 2480.92,2680.63 2480.31,2682.08 2479.66,2683.51 2478.99,2684.92 2478.29,2686.31 2477.56,2687.69 2476.81,2689.04 2476.03,2690.36 2475.22,2691.67 2474.39,2692.95 2473.53,2694.21 2472.65,2695.44 2471.74,2696.65 2470.81,2697.84 2469.86,2699 1333.98,1563.12 1334.93,1561.96 1335.86,1560.77 1336.77,1559.56 1337.65,1558.33 1338.51,1557.07 1339.34,1555.79 1340.15,1554.48 1340.93,1553.15 1341.68,1551.8 1342.41,1550.43 1343.11,1549.04 1343.78,1547.63 1344.43,1546.2 1345.04,1544.74 1345.63,1543.27 1346.18,1541.79 1346.71,1540.28 1347.21,1538.76 1347.67,1537.22 1348.1,1535.66 1348.5,1534.09 1348.87,1532.51 1349.21,1530.91 1349.51,1529.29 1349.78,1527.66 1350.01,1526.02 1350.21,1524.37 1350.37,1522.71 1350.5,1521.03 1350.59,1519.35 1350.65,1517.65 "/>
     <polygon id="_333319080" class="fil1" points="1333.98,1563.12 2469.86,2699 2468.83,2700.19 2467.77,2701.36 2466.69,2702.49 2465.59,2703.59 2464.46,2704.67 2463.32,2705.71 2462.14,2706.72 2460.95,2707.7 2459.74,2708.64 2458.5,2709.55 2457.25,2710.43 2455.97,2711.27 2454.68,2712.08 2453.37,2712.84 2452.04,2713.58 2450.69,2714.27 2449.32,2714.93 2447.94,2715.55 2446.54,2716.13 2445.12,2716.67 2443.69,2717.17 2442.24,2717.63 2440.78,2718.05 2439.31,2718.43 2437.82,2718.77 2436.32,2719.06 2434.8,2719.31 2433.28,2719.52 2431.74,2719.68 2430.19,2719.79 2428.63,2719.86 2427.06,2719.88 1291.18,1584 1292.75,1583.98 1294.31,1583.91 1295.86,1583.79 1297.39,1583.63 1298.92,1583.43 1300.44,1583.18 1301.94,1582.89 1303.43,1582.55 1304.9,1582.17 1306.36,1581.75 1307.81,1581.29 1309.24,1580.79 1310.66,1580.25 1312.06,1579.67 1313.44,1579.05 1314.81,1578.39 1316.16,1577.7 1317.49,1576.96 1318.8,1576.19 1320.09,1575.39 1321.37,1574.55 1322.62,1573.67 1323.86,1572.76 1325.07,1571.82 1326.26,1570.84 1327.43,1569.83 1328.58,1568.79 1329.71,1567.71 1330.81,1566.61 1331.89,1565.47 1332.95,1564.31 "/>
     <polygon id="_333318624" class="fil1" points="1291.18,1584 2427.06,2719.88 1892.7,2719.88 756.824,1584 "/>
     <polygon id="_333318744" class="fil1" points="756.824,1584 1892.7,2719.88 1891.13,2719.86 1889.57,2719.79 1888.03,2719.68 1886.49,2719.52 1884.96,2719.31 1883.45,2719.06 1881.94,2718.77 1880.45,2718.43 1878.98,2718.05 1877.52,2717.63 1876.07,2717.17 1874.64,2716.67 1873.23,2716.13 1871.82,2715.55 1870.44,2714.93 1869.07,2714.27 1867.72,2713.58 1866.39,2712.84 1865.08,2712.07 1863.79,2711.27 1862.51,2710.43 1861.26,2709.55 1860.02,2708.64 1858.81,2707.7 1857.62,2706.72 721.736,1570.84 722.929,1571.81 724.142,1572.76 725.377,1573.67 726.631,1574.55 727.906,1575.39 729.2,1576.19 730.512,1576.96 731.843,1577.69 733.193,1578.39 734.56,1579.05 735.943,1579.67 737.344,1580.25 738.759,1580.79 740.192,1581.29 741.637,1581.75 743.098,1582.17 744.573,1582.55 746.063,1582.89 747.564,1583.18 749.079,1583.43 750.605,1583.63 752.144,1583.79 753.693,1583.91 755.253,1583.98 "/>
    </g>
    <path id="_341218048" class="fil1" d="M756.824 463.999l534.354 0c16.8024,0 31.9441,8.00079 42.7985,20.8854 10.2992,12.2232 16.6925,28.9311 16.6925,47.1697l0 773.404 0 32.0811 0 178.407c0,18.2386 -6.39331,34.9453 -16.6925,47.1697 -10.8567,12.8858 -25.9961,20.8854 -42.7985,20.8854l-534.354 0c-16.8036,0 -31.9453,-8.00079 -42.7985,-20.8854 -10.2992,-12.2232 -16.6925,-28.9311 -16.6925,-47.1697l0 -178.407 0 -32.0811 0 -773.404c0,-18.2374 6.39213,-34.9453 16.6914,-47.1709 10.8567,-12.8847 25.9961,-20.8843 42.7996,-20.8843z"/>
   </g>
  </g>
  <path class="fil2" d="M1024 0c565.539,0 1024,458.461 1024,1024 0,565.539 -458.461,1024 -1024,1024 -565.539,0 -1024,-458.461 -1024,-1024 0,-565.539 458.461,-1024 1024,-1024z"/>
  <path class="fil3" d="M756.824 463.999l534.354 0c16.8024,0 31.9441,8.00079 42.7985,20.8854 10.2992,12.2232 16.6925,28.9311 16.6925,47.1697l0 773.404 0 32.0811 0 178.407c0,18.2386 -6.39331,34.9453 -16.6925,47.1697 -10.8567,12.8858 -25.9961,20.8854 -42.7985,20.8854l-534.354 0c-16.8036,0 -31.9441,-8.00079 -42.7985,-20.8854 -10.2992,-12.2232 -16.6925,-28.9311 -16.6925,-47.1697l0 -178.407 0 -32.0811 0 -773.404c0,-18.2374 6.39331,-34.9453 16.6914,-47.1709 10.8567,-12.8847 25.9961,-20.8843 42.7996,-20.8843z"/>
  <polygon class="fil4" points="1203.37,1453.69 1284.27,1453.69 1284.27,1480.97 1203.37,1480.97 "/>
  <polygon class="fil4" points="763.727,1453.69 844.632,1453.69 844.632,1480.97 763.727,1480.97 "/>
  <path class="fil4" d="M1024 1423.44c15.7217,0 29.9587,6.37441 40.2638,16.6795 10.3063,10.3063 16.6807,24.5433 16.6807,40.265 0,15.7217 -6.37441,29.9587 -16.6807,40.265 -10.3051,10.3051 -24.5421,16.6795 -40.2638,16.6795 -15.7217,0 -29.9587,-6.37441 -40.265,-16.6795 -10.3051,-10.3063 -16.6807,-24.5433 -16.6807,-40.265 0,-15.7217 6.3756,-29.9587 16.6807,-40.265 10.3063,-10.3051 24.5433,-16.6795 40.265,-16.6795z"/>
  <rect class="fil5" x="740.418" y="533.999" width="567.167" height="840.001"/>
  <path class="fil6" d="M817.665 772.768c-4.95473,0 -8.97166,4.01693 -8.97166,8.97166 0,4.95473 4.01693,8.97166 8.97166,8.97166l58.8319 0 15.541 25.0606 44.3658 254.505 8.83111 -1.50709 -8.8382 1.54016c0.766536,4.39843 4.61575,7.48583 8.93977,7.4315l257.485 0c4.95473,0 8.97166,-4.01693 8.97166,-8.97166 0,-4.95473 -4.01693,-8.97166 -8.97166,-8.97166l-250.057 0 -6.13819 -35.2111 253.746 0c6.98386,0 13.0099,-2.78504 17.5087,-7.28504 4.46693,-4.46693 7.34528,-10.6772 8.00316,-17.4555l13.2886 -136.871c0.0897638,-0.929528 0.134646,-1.64882 0.134646,-2.1626 0,-6.5067 -2.80394,-12.3425 -7.21182,-16.6748 -4.17284,-4.10079 -9.8752,-6.84567 -15.9709,-7.43741 -1.01575,-0.0980316 -1.84252,-0.148819 -2.46378,-0.148819l-299.814 0 -4.35945 -25.011c-0.147638,-1.27087 -0.569292,-2.52992 -1.28858,-3.68859l-0.0283465 0.0177165 -18.7075 -30.1666c-1.47756,-2.92796 -4.51063,-4.93583 -8.01379,-4.93583l-63.7843 0z"/>
  <path class="fil7" d="M990.68 951.883l74.9623 0 0 -37.9323 -74.9623 0 0 37.9323zm162.11 0l0 -37.9323 -74.9634 0 0 37.9323 74.9634 0zm12.1843 -115.331l0 63.9945 70.3264 0 -1.80236 13.4043 -68.5241 0 0 37.9323 65.6847 0 -1.74685 13.4043 -63.9378 0 0 59.2997 -12.1843 0 0 -59.2997 -74.9634 0 0 59.2997 -12.1843 0 0 -59.2997 -74.9623 0 0 59.2997 -12.1843 0 0 -59.2997 -46.8024 0 -2.76024 -13.4043 49.5626 0 0 -37.9323 -51.3567 0 -2.84764 -13.4043 54.2044 0 0 -63.9945 12.1843 0 0 63.9945 74.9623 0 0 -63.9945 12.1843 0 0 63.9945 74.9634 0 0 -63.9945 12.1843 0z"/>
  <path class="fil8" d="M982.442 1070.13c8.99764,0 17.1449,3.64843 23.0421,9.54568 5.89725,5.89725 9.54568,14.0445 9.54568,23.0421 0,8.99764 -3.64843,17.1449 -9.54568,23.0421 -5.89725,5.89725 -14.0445,9.54568 -23.0421,9.54568 -8.99764,0 -17.1449,-3.64843 -23.0421,-9.54568 -5.89725,-5.89725 -9.54568,-14.0445 -9.54568,-23.0421 0,-8.99764 3.64843,-17.1449 9.54568,-23.0421 5.89725,-5.89725 14.0445,-9.54568 23.0421,-9.54568z"/>
  <path class="fil8" d="M1151.34 1070.13c8.99764,0 17.1437,3.64843 23.0421,9.54568 5.89725,5.89725 9.5445,14.0445 9.5445,23.0421 0,8.99764 -3.64725,17.1449 -9.54568,23.0421 -5.89607,5.89725 -14.0433,9.54568 -23.041,9.54568 -8.99764,0 -17.1449,-3.64843 -23.0421,-9.54568 -5.89843,-5.89725 -9.54568,-14.0445 -9.54568,-23.0421 0,-8.99764 3.64725,-17.1449 9.54568,-23.0421 5.89607,-5.89725 14.0433,-9.54568 23.0421,-9.54568z"/>
  <path class="fil9" d="M1151.34 1087.28c4.26496,0 8.12481,1.72914 10.9205,4.52363 2.79449,2.79449 4.52244,6.65552 4.52244,10.9193 0,4.26378 -1.72795,8.12481 -4.52363,10.9193 -2.79449,2.79449 -6.65434,4.52363 -10.9193,4.52363 -4.26378,0 -8.12363,-1.72914 -10.9193,-4.52363 -2.79449,-2.79449 -4.52244,-6.65552 -4.52244,-10.9193 0,-4.26378 1.72795,-8.12481 4.52244,-10.9193 2.79449,-2.79449 6.65552,-4.52363 10.9193,-4.52363z"/>
  <path class="fil9" d="M982.442 1087.28c4.26378,0 8.12481,1.72914 10.9193,4.52363 2.79449,2.79449 4.52363,6.65552 4.52363,10.9193 0,4.26378 -1.72914,8.12481 -4.52363,10.9193 -2.79449,2.79449 -6.65552,4.52363 -10.9193,4.52363 -4.26378,0 -8.12481,-1.72914 -10.9193,-4.52363 -2.79449,-2.79449 -4.52363,-6.65552 -4.52363,-10.9193 0,-4.26378 1.72914,-8.12481 4.52363,-10.9193 2.79449,-2.79449 6.65552,-4.52363 10.9193,-4.52363z"/>
 </g>
</svg>
